<?xml version="1.0" encoding="utf-8"?>
<!-- Generator: Adobe Illustrator 21.0.0, SVG Export Plug-In . SVG Version: 6.00 Build 0)  -->
<svg version="1.1" id="Layer_1" xmlns="http://www.w3.org/2000/svg" xmlns:xlink="http://www.w3.org/1999/xlink" x="0px" y="0px"
	 viewBox="0 0 695 192" style="enable-background:new 0 0 695 192;" xml:space="preserve">
<style type="text/css">
	.st0{fill:#2D353D;}
	.st1{fill:#FF8B33;}
</style>
<g>
	<path class="st0" d="M81.9,145.6c-6.5-3.7-11.7-8.9-15.3-15.5c-3.7-6.6-5.5-13.9-5.5-22.1c0-8.3,1.8-15.8,5.4-22.4
		c3.6-6.6,8.6-11.7,15-15.4c6.4-3.7,13.7-5.5,21.8-5.5c12.3,0,22.4,4.7,30.5,14c1,1.1,1.6,2.5,1.6,4.1c0,2.3-1.1,4.2-3.4,5.8
		c-1,0.7-2.2,1.1-3.6,1.1c-2.4,0-4.4-0.9-6.1-2.8c-2.6-2.8-5.4-4.9-8.5-6.2c-3.1-1.3-6.6-1.9-10.5-1.9c-8,0-14.5,2.7-19.5,8
		c-5,5.4-7.5,12.4-7.5,21.3c0,5.6,1.2,10.6,3.5,15c2.3,4.4,5.6,7.9,9.8,10.4c4.2,2.5,9,3.7,14.4,3.7c7.1,0,12.8-1.8,17.1-5.5
		c2-1.5,3.9-2.2,5.8-2.2c1.5,0,2.8,0.5,4.1,1.4c2,1.7,3,3.5,3,5.6c0,1.6-0.6,3-1.9,4.2c-7.5,7-16.8,10.4-28.1,10.4
		C95.8,151.2,88.4,149.3,81.9,145.6z"/>
	<path class="st0" d="M249.1,67.4c1.5,1.5,2.2,3.4,2.2,5.8v69.5c0,2.3-0.7,4.2-2.2,5.7c-1.5,1.5-3.4,2.3-5.8,2.3
		c-2.3,0-4.2-0.8-5.7-2.3c-1.5-1.5-2.3-3.4-2.3-5.7v-1.7c-3.3,3.3-7.3,5.9-11.8,7.7c-4.6,1.8-9.5,2.7-14.6,2.7
		c-7.2,0-13.6-1.6-19.3-4.7c-5.7-3.1-10.2-7.7-13.4-13.6c-3.2-6-4.8-13.2-4.8-21.6V73.1c0-2.3,0.8-4.2,2.3-5.7
		c1.5-1.5,3.4-2.3,5.7-2.3c2.3,0,4.2,0.8,5.7,2.3c1.5,1.5,2.3,3.4,2.3,5.7v38.3c0,8.4,2.3,14.8,6.8,19.1c4.5,4.3,10.5,6.5,18,6.5
		c4.4,0,8.3-0.9,11.9-2.6c3.6-1.8,6.4-4.2,8.4-7.2c2-3,3-6.4,3-10.1V73.1c0-2.4,0.8-4.3,2.3-5.8c1.5-1.5,3.4-2.2,5.7-2.2
		C245.7,65.2,247.6,65.9,249.1,67.4z"/>
	<path class="st0" d="M357.4,69c0.7,1.1,1.1,2.3,1.1,3.7c0,0.9-0.3,1.9-0.8,3l-33,69.7c-1.6,3.4-3.9,5.1-7.2,5.1
		c-1.8,0-3.2-0.4-4.4-1.2c-1.1-0.8-2.2-2.1-3.1-4l-33-69.7c-0.4-0.8-0.6-1.8-0.6-2.8c0-2.8,1.5-4.9,4.4-6.4c0.9-0.5,2-0.8,3.3-0.8
		c1.2,0,2.4,0.3,3.6,1c1.1,0.7,2,1.6,2.6,2.9l27.1,58.4l26.8-58.4c0.6-1.2,1.5-2.2,2.7-2.9c1.2-0.7,2.5-1,3.8-1
		c1.3,0,2.5,0.3,3.6,0.8C355.6,67.1,356.7,67.9,357.4,69z"/>
	<path class="st1" d="M389.3,48.8c-2.3-2.3-3.5-5.1-3.5-8.3c0-3.2,1.2-6,3.5-8.3c2.3-2.3,5.1-3.5,8.3-3.5c3.2,0,6,1.2,8.3,3.5
		c2.3,2.3,3.5,5.1,3.5,8.3c0,3.2-1.2,6-3.5,8.3c-2.3,2.3-5.1,3.5-8.3,3.5C394.4,52.3,391.6,51.1,389.3,48.8z"/>
	<path class="st1" d="M391.9,148.3c-1.5-1.5-2.3-3.4-2.3-5.7l-3.4-69.3c0-2.4,0.8-4.3,2.3-5.8c1.5-1.5,6.8-2.2,9.1-2.2
		c2.4,0,7.7,0.7,9.2,2.2c1.5,1.5,2.2,3.4,2.2,5.8l-3.4,69.3c0,2.3-0.7,4.2-2.2,5.7c-1.5,1.5-3.4,2.3-5.8,2.3
		C395.3,150.6,393.4,149.8,391.9,148.3z"/>
	<path class="st0" d="M517.9,69c0.7,1.1,1.1,2.3,1.1,3.7c0,0.9-0.3,1.9-0.8,3l-33,69.7c-1.6,3.4-4,5.1-7.2,5.1
		c-1.8,0-3.2-0.4-4.4-1.2c-1.1-0.8-2.2-2.1-3.1-4l-33-69.7c-0.4-0.8-0.6-1.8-0.6-2.8c0-2.8,1.5-4.9,4.4-6.4c0.9-0.5,2-0.8,3.3-0.8
		c1.2,0,2.4,0.3,3.6,1c1.1,0.7,2,1.6,2.6,2.9l27.1,58.4l26.8-58.4c0.6-1.2,1.5-2.2,2.7-2.9c1.2-0.7,2.5-1,3.8-1
		c1.3,0,2.5,0.3,3.6,0.8C516.1,67.1,517.2,67.9,517.9,69z"/>
	<path class="st0" d="M605.9,70.4c6.5,3.8,11.6,9,15.4,15.6c3.8,6.6,5.7,13.9,5.7,22.1v34.8c0,2.3-0.8,4.2-2.3,5.7
		c-1.5,1.5-3.4,2.3-5.7,2.3c-2.3,0-4.2-0.8-5.7-2.3c-1.5-1.5-2.3-3.4-2.3-5.7V137c-3.6,4.5-8.1,7.9-13.2,10.4
		c-5.2,2.5-10.8,3.7-16.8,3.7c-7.5,0-14.3-1.9-20.3-5.6s-10.9-8.9-14.3-15.5c-3.5-6.6-5.2-13.9-5.2-22.1c0-8.1,1.9-15.5,5.6-22.1
		c3.7-6.6,8.9-11.8,15.5-15.6c6.6-3.8,13.9-5.7,21.9-5.7C592.1,64.7,599.4,66.6,605.9,70.4z M598.2,133.4c4.2-2.5,7.5-6,9.9-10.4
		c2.4-4.4,3.6-9.4,3.6-14.9c0-5.5-1.2-10.5-3.6-15c-2.4-4.5-5.7-8-9.9-10.5c-4.2-2.5-8.9-3.8-14.1-3.8c-5.2,0-9.9,1.3-14.1,3.8
		c-4.2,2.5-7.5,6.1-10,10.5c-2.4,4.5-3.7,9.5-3.7,15c0,5.5,1.2,10.5,3.7,14.9c2.4,4.4,5.8,7.9,10,10.4c4.2,2.5,8.9,3.8,14.1,3.8
		C589.3,137.2,594,135.9,598.2,133.4z"/>
</g>
</svg>
