<svg width="270" height="55" viewBox="0 0 270 55" fill="none" xmlns="http://www.w3.org/2000/svg">
<path d="M46.2616 24.5056C46.2621 29.8776 44.596 35.1178 41.4926 39.5055C38.3892 43.8932 34.0009 47.2128 28.9313 49.0077V42.7766C32.3952 41.137 35.3218 38.5487 37.3705 35.3129C39.4193 32.0771 40.506 28.3269 40.5041 24.4984C40.5023 20.6699 39.4121 16.9207 37.3603 13.6868C35.3085 10.453 32.3794 7.86746 28.914 6.23112V0C33.9871 1.79272 38.3792 5.11172 41.4859 9.50023C44.5925 13.8887 46.261 19.131 46.2616 24.5056ZM23.1291 21.6185H0V27.3927H23.1291V21.6185ZM34.6954 24.5056C34.6958 22.6093 34.3222 20.7316 33.5958 18.9795C32.8694 17.2275 31.8046 15.6356 30.462 14.2948C29.1195 12.9539 27.5256 11.8903 25.7714 11.1649C24.0172 10.4394 22.137 10.0663 20.2384 10.0667H11.5732V15.8409H28.914V33.1669H11.5663V38.9445H20.2315C22.1306 38.9454 24.0112 38.5726 25.766 37.8474C27.5208 37.1222 29.1154 36.0587 30.4586 34.7179C31.8018 33.377 32.8673 31.785 33.5942 30.0327C34.3212 28.2805 34.6954 26.4023 34.6954 24.5056ZM126.688 31.6091H103.961C104.422 36.9782 107.951 40.5023 113.386 40.5023C117.32 40.5023 120.498 38.5983 121.195 35.5935H126.512C125.472 41.4785 120.037 45.2864 113.212 45.2864C105.001 45.2864 98.7553 38.8753 98.7553 30.5013C98.7553 22.3559 105.06 15.962 113.157 15.962C120.73 15.962 126.803 21.7951 126.803 29.9371C126.794 30.496 126.756 31.0541 126.688 31.6091ZM121.021 27.5658C120.73 23.3494 117.378 20.4034 112.925 20.4034C108.471 20.4034 105.174 23.2351 104.194 27.5658H121.021ZM138.189 13.7638V16.5332H145.88V21.6185H138.189V44.7187H132.868V21.6185H127.375V16.5332H132.868V13.705C132.868 6.83346 136.802 3.36827 142.757 3.36827C143.807 3.36577 144.853 3.4819 145.877 3.71444V8.62317C145.214 8.46057 144.534 8.38263 143.852 8.39124C140.504 8.39124 138.189 9.83478 138.189 13.7638ZM173.706 31.6091H150.982C151.443 36.9782 154.971 40.5023 160.406 40.5023C164.34 40.5023 167.519 38.5983 168.215 35.5935H173.532C172.492 41.4785 167.058 45.2864 160.233 45.2864C152.022 45.2864 145.776 38.8753 145.776 30.5013C145.776 22.3559 152.081 15.962 160.174 15.962C167.758 15.9586 173.823 21.8089 173.823 29.9336C173.815 30.4938 173.776 31.0532 173.706 31.6091ZM168.039 27.5658C167.758 23.3494 164.396 20.4034 159.945 20.4034C155.495 20.4034 152.195 23.2351 151.211 27.5658H168.039ZM202.481 44.7187H197.16V21.6185H182.704V44.7187H177.328V16.5332H202.481V44.7187ZM215.132 21.6185V34.6173C215.132 38.5464 217.447 40.0488 220.799 40.0488C221.463 40.0606 222.125 39.9826 222.768 39.8168V44.7256C221.764 44.9613 220.735 45.0775 219.704 45.0718C213.746 45.0718 209.815 41.61 209.815 34.735V21.6185H204.321V16.5332H209.815V8.91742H215.132V16.5332H222.757V21.6185H215.132ZM240.906 21.6185H230.788V44.7187H225.468V16.5332H240.892L240.906 21.6185ZM270.007 16.5332L253.865 55H248.139L253.113 43.7355L241.72 16.5332H247.446L255.831 37.5563L264.274 16.5332H270.007ZM76.4338 4.28909H63.6093V44.7187H76.4338C87.5252 44.7187 96.537 35.7355 96.537 24.3325C96.537 12.5834 86.832 4.28909 76.4338 4.28909ZM76.4338 38.9549H69.3907V10.0667H76.4407C83.7715 10.0667 90.7556 15.9828 90.7556 24.336C90.7556 32.6891 83.7715 38.9549 76.4407 38.9549H76.4338Z" fill="#2A2C2F"/>
</svg>
