<?xml version="1.0" encoding="UTF-8"?> <svg xmlns="http://www.w3.org/2000/svg" id="Lager_1" data-name="Lager 1" viewBox="0 0 2876.48 551.07"><defs><style>.cls-1{fill:#41b7e0;}.cls-2{fill:#ff5a5a;}</style></defs><path class="cls-1" d="M680.26,51.74c0-12,6-18.69,18-18.69H850c157.78,0,264,96.46,264,262.46,0,167.5-106.18,263.22-264,263.22H698.21c-12,0-18-6.73-18-18.7ZM844.77,512.37c129.36,0,215.36-75.53,215.36-216.86,0-139.83-86.75-216.1-215.36-216.1H731.86v433Z" transform="translate(-13.43 -16.8)"></path><path class="cls-1" d="M1338.29,173.63c109.92,0,198.91,83.75,198.91,195.16,0,113.66-89,198.91-198.16,198.91-109.92,0-198.91-85.25-198.91-198.91C1140.13,257.38,1229.12,173.63,1338.29,173.63Zm.75,348.46c80,0,145.81-65.81,145.81-153.3,0-85.24-65.8-149.55-145.81-149.55-80.76,0-146.56,64.31-146.56,149.55C1192.48,456.28,1258.28,522.09,1339,522.09Z" transform="translate(-13.43 -16.8)"></path><path class="cls-1" d="M1768.26,173.63c64.3,0,106.18,27.66,124.87,42.62,9,6.73,9.72,15.7,2.25,25.42l-5.24,8.23c-6.73,10.47-15,10.47-25.42,3.74-16.45-12.71-49.35-34.4-95-34.4-82.25,0-146.56,62.07-146.56,151.8,0,89,64.31,151.05,147.31,151.05,52.34,0,88.24-24.68,106.18-39.64q14.58-11.2,24.68,4.49l5.23,7.48c6,9.72,3.74,17.95-4.48,25.42-19.45,15.71-64.31,47.86-133.85,47.86-112.17,0-197.41-80-197.41-196.66C1570.85,255.13,1656.84,173.63,1768.26,173.63Z" transform="translate(-13.43 -16.8)"></path><path class="cls-1" d="M1979.13,228.22h-31.41q-17.94,0-17.94-17.95v-6c0-12,6-18.7,17.94-18.7h32.16V97.36c0-12,6.73-18.7,18.69-18.7H2012c12,0,18,6.73,18,18.7v88.23h76.27c12,0,18.7,6.73,18.7,18.7v6c0,12-6.73,17.95-18.7,17.95H2030V416.65c0,86.74,53.09,97.21,82.25,98.71,15,1.49,20.19,6,20.19,18.69v9.72c0,12-6,18-20.94,18-82.25,0-132.35-50.1-132.35-138.34Z" transform="translate(-13.43 -16.8)"></path><path class="cls-1" d="M2188.5,201.29c0-12,6.73-18.69,18.7-18.69h13.46c11.21,0,17.94,6.73,17.94,18.69v50.85a153.79,153.79,0,0,1-3,29.91h1.5c17.94-54.58,61.31-101.69,121.13-101.69,13.47,0,19.45,6,19.45,17.94v13.46c0,12-8.23,18.7-20.94,18.7-79.26,0-117.4,90.48-117.4,169V540c0,12-6,18.7-17.94,18.7H2207.2c-12,0-18.7-6.73-18.7-18.7Z" transform="translate(-13.43 -16.8)"></path><path class="cls-1" d="M2424.8,125.64V98.72c0-12,6-18.7,17.95-18.7h18.69c12,0,17.95,6.73,17.95,18.7v26.92q0,17.94-17.95,17.94h-18.69Q2424.8,143.58,2424.8,125.64Zm1.5,75.65c0-12,6.72-18.69,18.69-18.69h14.21c12,0,17.94,6.73,17.94,18.69V540c0,12-6,18.7-17.94,18.7H2445c-12,0-18.69-6.73-18.69-18.7Z" transform="translate(-13.43 -16.8)"></path><path class="cls-1" d="M2563.13,201.29c0-12,6.73-18.69,18.7-18.69h13.46c11.21,0,17.94,6.73,17.94,18.69v43.38a123.53,123.53,0,0,1-3,26.92h1.5c14.21-34.4,63.56-98,151.79-98,93.47,0,126.38,53.09,126.38,145.81V540c0,12-6.73,18.7-18.7,18.7H2857c-12,0-17.94-6.73-17.94-18.7V332.9c0-59.07-9.72-111.42-82.26-111.42-80,0-142.82,65.81-142.82,153.3V540c0,12-6,18.7-17.95,18.7h-14.2c-12,0-18.7-6.73-18.7-18.7Z" transform="translate(-13.43 -16.8)"></path><path class="cls-1" d="M453.7,174.81H296.26c-75.85,0-118.21,42.36-118.21,118.21v59.53h42.74V293c0-52.28,23.19-75.47,75.47-75.47H453.59a74.8,74.8,0,0,1,0,149.59H433.24A62.93,62.93,0,0,0,370.37,430v20.35a74.79,74.79,0,0,1-149.58,0V424.45H178.05v25.94a117.54,117.54,0,0,0,235.07-.05V430a20.14,20.14,0,0,1,20.12-20.13h20.35a117.53,117.53,0,0,0,.11-235Z" transform="translate(-13.43 -16.8)"></path><path class="cls-2" d="M406.5,160.21V134.33a.43.43,0,0,0,0-.05,117.53,117.53,0,0,0-235.06.05v20.35a20.14,20.14,0,0,1-20.12,20.12H131a117.53,117.53,0,0,0-.11,235.06H288.29c75.85,0,118.21-42.36,118.21-118.2V232.13H363.76v59.53c0,52.28-23.19,75.47-75.47,75.47H131a74.79,74.79,0,0,1,0-149.58h20.35a62.93,62.93,0,0,0,62.86-62.86V134.33a74.8,74.8,0,0,1,149.59,0v25.88Z" transform="translate(-13.43 -16.8)"></path></svg> 