<?xml version="1.0" encoding="utf-8"?>
<!-- Generator: Adobe Illustrator 15.0.0, SVG Export Plug-In . SVG Version: 6.00 Build 0)  -->
<!DOCTYPE svg PUBLIC "-//W3C//DTD SVG 1.1//EN" "http://www.w3.org/Graphics/SVG/1.1/DTD/svg11.dtd" [
	<!ENTITY ns_extend "http://ns.adobe.com/Extensibility/1.0/">
	<!ENTITY ns_ai "http://ns.adobe.com/AdobeIllustrator/10.0/">
	<!ENTITY ns_graphs "http://ns.adobe.com/Graphs/1.0/">
	<!ENTITY ns_vars "http://ns.adobe.com/Variables/1.0/">
	<!ENTITY ns_imrep "http://ns.adobe.com/ImageReplacement/1.0/">
	<!ENTITY ns_sfw "http://ns.adobe.com/SaveForWeb/1.0/">
	<!ENTITY ns_custom "http://ns.adobe.com/GenericCustomNamespace/1.0/">
	<!ENTITY ns_adobe_xpath "http://ns.adobe.com/XPath/1.0/">
]>
<svg version="1.1" id="Layer_1" xmlns:x="&ns_extend;" xmlns:i="&ns_ai;" xmlns:graph="&ns_graphs;"
	 xmlns="http://www.w3.org/2000/svg" xmlns:xlink="http://www.w3.org/1999/xlink" x="0px" y="0px" width="347.275px"
	 height="107.509px" viewBox="0 0 347.275 107.509" enable-background="new 0 0 347.275 107.509" xml:space="preserve">
<metadata>
	<sfw  xmlns="&ns_sfw;">
		<slices></slices>
		<sliceSourceBounds  x="0" y="0" width="5080" height="8128" bottomLeftOrigin="true"></sliceSourceBounds>
	</sfw>
</metadata>
<path fill="#1A5450" d="M39.876,3.671c-0.181-1.205-0.864-2.278-1.88-2.952c-1.016-0.674-2.27-0.887-3.452-0.586
	C11.631,6.184-3.035,28.516,0.533,51.923c3.567,23.408,24.22,40.367,47.898,39.331c1.218-0.064,2.353-0.639,3.123-1.584
	c0.769-0.945,1.103-2.172,0.917-3.377L39.876,3.671z"/>
<ellipse fill="#9EDBD1" cx="66.892" cy="22.261" rx="18.784" ry="18.765"/>
<path fill="#70C183" d="M92.137,53.347l-23.391-3.826c-3.709-0.587-7.194,1.939-7.787,5.644l-6.53,40.615
	c-0.299,1.776,0.122,3.598,1.169,5.065c1.046,1.466,2.634,2.457,4.412,2.754l23.391,3.826c3.71,0.586,7.194-1.939,7.787-5.644
	l6.53-40.605c0.302-1.778-0.117-3.603-1.164-5.071C95.506,54.636,93.917,53.644,92.137,53.347z"/>
<g>
	<defs>
		<path id="SVGID_1_" d="M150.39,44.888v8.679h16.748c-0.684,3.166-2.48,5.983-5.063,7.941c-2.563,1.935-5.651,2.903-9.264,2.903
			c-4.204,0.103-8.268-1.514-11.25-4.476c-3.012-2.909-4.667-6.944-4.564-11.128c-0.103-4.13,1.487-8.123,4.402-11.054
			c2.826-2.938,6.752-4.562,10.83-4.481c6.603,0,11.355,2.73,14.254,8.19l8.692-3.01c-1.555-4.443-4.669-8.172-8.766-10.497
			c-4.316-2.461-9.216-3.717-14.185-3.636c-7.027,0-12.966,2.367-17.815,7.101c-4.849,4.733-7.265,10.529-7.249,17.387
			c0,6.907,2.446,12.714,7.337,17.422c4.892,4.708,10.902,7.065,18.03,7.071c7.034,0,12.831-2.31,17.389-6.929
			c4.559-4.62,6.842-10.427,6.848-17.422c0-1.075-0.073-2.444-0.215-4.061H150.39z"/>
	</defs>
	<clipPath id="SVGID_2_">
		<use xlink:href="#SVGID_1_"  overflow="visible"/>
	</clipPath>
	<rect x="117.159" y="14.314" clip-path="url(#SVGID_2_)" fill="#2A303D" width="69.604" height="68.985"/>
	<rect x="-1340.019" y="-20.003" clip-path="url(#SVGID_2_)" fill="none" width="5080" height="8128"/>
</g>
<g>
	<defs>
		<rect id="SVGID_3_" x="180.814" y="37.332" width="9.406" height="34.917"/>
	</defs>
	<clipPath id="SVGID_4_">
		<use xlink:href="#SVGID_3_"  overflow="visible"/>
	</clipPath>
	<rect x="170.814" y="27.333" clip-path="url(#SVGID_4_)" fill="#2A303D" width="29.406" height="54.916"/>
</g>
<g>
	<defs>
		<path id="SVGID_5_" d="M185.52,21.376c-1.523-0.038-2.994,0.559-4.06,1.647c-1.059,1.012-1.652,2.416-1.638,3.88
			c-0.039,1.453,0.545,2.854,1.604,3.851c1.103,1.041,2.578,1.595,4.094,1.539c1.505,0.042,2.966-0.511,4.065-1.539
			c1.081-0.985,1.684-2.389,1.653-3.851c0.011-1.463-0.581-2.867-1.638-3.88C188.528,21.932,187.049,21.334,185.52,21.376z"/>
	</defs>
	<clipPath id="SVGID_6_">
		<use xlink:href="#SVGID_5_"  overflow="visible"/>
	</clipPath>
	<g clip-path="url(#SVGID_6_)">
		<defs>
			<rect id="SVGID_7_" x="-1340.019" y="-20.003" width="5080" height="8128"/>
		</defs>
		<clipPath id="SVGID_8_">
			<use xlink:href="#SVGID_7_"  overflow="visible"/>
		</clipPath>
		<rect x="169.819" y="11.375" clip-path="url(#SVGID_8_)" fill="#2A303D" width="31.419" height="30.923"/>
	</g>
</g>
<g>
	<defs>
		<path id="SVGID_9_" d="M241.879,64.693c-3.467,0-5.2-2.007-5.2-6.02V44.888h11.612v-7.555H236.68V26.767h-9.406v10.566h-17.448
			v-3.128c-0.078-1.391,0.458-2.747,1.467-3.709c1.052-0.916,2.417-1.392,3.811-1.329c1.214,0.022,2.417,0.233,3.566,0.625
			l2.132-7.486c-1.998-0.898-4.168-1.352-6.359-1.33c-4.239,0-7.635,1.191-10.188,3.573c-2.554,2.381-3.834,5.6-3.84,9.656v3.128
			H195v7.555h5.415v27.366h9.411V44.888h17.453v14.485c0,4.668,1.236,8.156,3.707,10.462c2.472,2.307,5.896,3.462,10.272,3.465
			c2.896,0,5.984-0.863,9.265-2.59l-2.73-7.672C245.984,64.058,243.956,64.625,241.879,64.693z"/>
	</defs>
	<clipPath id="SVGID_10_">
		<use xlink:href="#SVGID_9_"  overflow="visible"/>
	</clipPath>
	<g clip-path="url(#SVGID_10_)">
		<defs>
			<rect id="SVGID_11_" x="-1340.019" y="-20.003" width="5080" height="8128"/>
		</defs>
		<clipPath id="SVGID_12_">
			<use xlink:href="#SVGID_11_"  overflow="visible"/>
		</clipPath>
		<rect x="185" y="10.976" clip-path="url(#SVGID_12_)" fill="#2A303D" width="75.523" height="72.324"/>
	</g>
</g>
<g>
	<defs>
		<path id="SVGID_13_" d="M260.208,50.767c0.453-1.952,1.638-3.656,3.312-4.76c1.608-1.094,3.508-1.678,5.454-1.676
			c1.877-0.032,3.717,0.529,5.258,1.603c1.591,1.181,2.704,2.895,3.135,4.828L260.208,50.767z M268.958,36.282
			c-5.182,0-9.54,1.738-13.075,5.214c-3.535,3.477-5.306,7.92-5.312,13.332c0,5.411,1.757,9.842,5.273,13.292
			c3.515,3.45,7.838,5.177,12.967,5.18c3.678,0.083,7.305-0.864,10.473-2.732c3.054-1.885,5.427-4.694,6.774-8.019L277.65,60.8
			c-1.852,3.078-4.799,4.618-8.839,4.618c-2.122,0.023-4.173-0.766-5.733-2.204c-1.688-1.563-2.806-3.644-3.174-5.913h27.079v-3.153
			c-0.186-5.212-2.025-9.491-5.518-12.837C278.138,38.031,273.632,36.22,268.958,36.282z"/>
	</defs>
	<clipPath id="SVGID_14_">
		<use xlink:href="#SVGID_13_"  overflow="visible"/>
	</clipPath>
	<g clip-path="url(#SVGID_14_)">
		<defs>
			<rect id="SVGID_15_" x="-1340.019" y="-20.003" width="5080" height="8128"/>
		</defs>
		<clipPath id="SVGID_16_">
			<use xlink:href="#SVGID_15_"  overflow="visible"/>
		</clipPath>
		<rect x="240.571" y="26.281" clip-path="url(#SVGID_16_)" fill="#2A303D" width="56.412" height="57.024"/>
	</g>
</g>
<g>
	<defs>
		<path id="SVGID_17_" d="M315.971,62.349c-1.874,1.865-4.413,2.909-7.059,2.902c-2.677,0.088-5.27-0.938-7.161-2.834
			c-1.875-1.886-2.812-4.416-2.812-7.589s0.949-5.716,2.846-7.629c1.883-1.914,4.482-2.954,7.166-2.868
			c2.65-0.007,5.191,1.05,7.054,2.932c2.041,1.955,3.062,4.475,3.062,7.56S318.034,60.417,315.971,62.349z M319.051,40.133
			c-3.137-2.564-7.05-3.848-11.739-3.851s-8.766,1.758-12.229,5.283c-3.492,3.522-5.239,7.943-5.239,13.263
			s1.735,9.728,5.205,13.224c3.463,3.499,7.539,5.248,12.229,5.248c4.656,0,8.569-1.259,11.739-3.777v2.726h9.406V21.871h-9.372
			V40.133z"/>
	</defs>
	<clipPath id="SVGID_18_">
		<use xlink:href="#SVGID_17_"  overflow="visible"/>
	</clipPath>
	<g clip-path="url(#SVGID_18_)">
		<defs>
			<rect id="SVGID_19_" x="-1340.019" y="-20.003" width="5080" height="8128"/>
		</defs>
		<clipPath id="SVGID_20_">
			<use xlink:href="#SVGID_19_"  overflow="visible"/>
		</clipPath>
		<rect x="279.845" y="11.871" clip-path="url(#SVGID_20_)" fill="#2A303D" width="58.579" height="71.429"/>
	</g>
</g>
<g>
	<defs>
		<polygon id="SVGID_21_" points="345.227,65.559 343.431,69.288 341.655,65.559 339.582,65.559 339.582,72.229 341.356,72.229 
			341.356,68.824 342.878,72.206 343.979,72.206 345.504,68.824 345.504,72.229 347.275,72.229 347.275,65.559 		"/>
	</defs>
	<clipPath id="SVGID_22_">
		<use xlink:href="#SVGID_21_"  overflow="visible"/>
	</clipPath>
	<g clip-path="url(#SVGID_22_)">
		<defs>
			<rect id="SVGID_23_" x="-1340.019" y="-20.003" width="5080" height="8128"/>
		</defs>
		<clipPath id="SVGID_24_">
			<use xlink:href="#SVGID_23_"  overflow="visible"/>
		</clipPath>
		<rect x="329.582" y="55.559" clip-path="url(#SVGID_24_)" fill="#2A303D" width="27.694" height="26.671"/>
	</g>
</g>
<g>
	<defs>
		<polygon id="SVGID_25_" points="332.611,67.127 334.714,67.127 334.709,72.229 336.607,72.229 336.612,67.127 338.759,67.127 
			338.759,65.559 332.615,65.559 		"/>
	</defs>
	<clipPath id="SVGID_26_">
		<use xlink:href="#SVGID_25_"  overflow="visible"/>
	</clipPath>
	<g clip-path="url(#SVGID_26_)">
		<defs>
			<rect id="SVGID_27_" x="-1340.019" y="-20.003" width="5080" height="8128"/>
		</defs>
		<clipPath id="SVGID_28_">
			<use xlink:href="#SVGID_27_"  overflow="visible"/>
		</clipPath>
		<rect x="322.611" y="55.559" clip-path="url(#SVGID_28_)" fill="#2A303D" width="26.148" height="26.671"/>
	</g>
</g>
</svg>
