<!-- sample rectangle -->
<svg class="Logo-svg" viewBox="0 0 246 55"><path class="Logo-svgPath" d="M230.2 0v42.7H221v-2.9c-2 2.3-5 3.7-9.1 3.7-8 0-14.6-7-14.6-16.1 0-9.1 6.6-16.1 14.6-16.1 4.1 0 7.1 1.4 9.1 3.7V0h9.2zm-9.1 27.5c0-4.6-3.1-7.4-7.3-7.4s-7.3 2.9-7.3 7.4c0 4.6 3.1 7.4 7.3 7.4s7.3-2.9 7.3-7.4zM234.4 37.8c0-3.2 2.6-5.8 5.8-5.8 3.2 0 5.8 2.6 5.8 5.8 0 3.2-2.6 5.8-5.8 5.8-3.2 0-5.8-2.6-5.8-5.8zM18.3 11.6V22c-3.8-.6-9.2.9-9.2 7v13.8H0V12.2h9.2v5.4c1.2-4.1 5.3-6 9.1-6zM52 12.2v30.5h-9.2v-2.9c-2 2.3-5 3.7-9.1 3.7-8 0-14.6-7-14.6-16.1 0-9.1 6.6-16.1 14.6-16.1 4.1 0 7.1 1.4 9.1 3.7v-2.9H52zm-9.1 15.3c0-4.6-3.1-7.4-7.3-7.4s-7.3 2.9-7.3 7.4c0 4.6 3.1 7.4 7.3 7.4s7.3-2.9 7.3-7.4zM86.3 12.2 75.9 41.8c-3.4 9.7-8.9 13.6-17.4 13.1v-8.5c4.3 0 6.3-1.3 7.6-5.1L54 12.2h10.1l6.8 18.7 5.7-18.7h9.7zM149.9 11.4c-9 0-16.2 7-16.2 16.1 0 9.1 7.2 16.1 16.2 16.1s16.2-7 16.2-16.1c0-9.1-7.3-16.1-16.2-16.1zM132.9 18.9c-1.6-4.7-5.5-7.6-10.8-7.6-4.3 0-7.1 1.6-8.9 4-1.7-2.6-4.4-4-8-4-4.1 0-6.8 1.6-8.2 3.7v-2.8h-9.2v30.5H97V25.5c0-3.6 1.7-5.7 4.8-5.7 2.9 0 4.4 2 4.4 5v17.9h9.2V25.5c0-3.6 1.7-5.7 4.8-5.7 2.9 0 4.4 2 4.4 5v17.9h9.2v-5.3c-1.8-2.9-2.8-6.3-2.8-9.9-.1-3.1.6-6 1.9-8.6zM184 11.4c-4 0-7.1 1.5-8.7 3.7v-2.9h-9.2v5.4c1.8 2.9 2.7 6.3 2.7 9.9 0 3.6-1 7-2.7 9.9v5.4h9.2V26.1c0-4.3 2.3-6.3 5.7-6.3 2.9 0 5.3 1.8 5.3 5.6v17.4h9.2V24c-.1-8.3-5.4-12.6-11.5-12.6z"></path></svg>