<?xml version="1.0" encoding="UTF-8" standalone="no"?>
<!DOCTYPE svg PUBLIC "-//W3C//DTD SVG 1.1//EN" "http://www.w3.org/Graphics/SVG/1.1/DTD/svg11.dtd">
<svg width="100%" height="100%" viewBox="0 0 591 786" version="1.1" xmlns="http://www.w3.org/2000/svg" xmlns:xlink="http://www.w3.org/1999/xlink" xml:space="preserve" xmlns:serif="http://www.serif.com/" style="fill-rule:evenodd;clip-rule:evenodd;stroke-linejoin:round;stroke-miterlimit:2;">
    <g transform="matrix(1,0,0,1,-893.44,-559.548)">
        <g transform="matrix(1.14317,0,0,1.14317,-222.778,-74.6696)">
            <g transform="matrix(0.209257,0,0,0.209257,1022.98,309.071)">
                <circle cx="1411.68" cy="2417.13" r="55.619"/>
            </g>
            <g transform="matrix(0.662145,0,0,0.662145,222.34,-950.847)">
                <circle cx="1411.68" cy="2417.13" r="55.619"/>
            </g>
            <g transform="matrix(0.468118,0,0,0.468118,405.286,-432.33)">
                <circle cx="1411.68" cy="2417.13" r="55.619"/>
            </g>
            <g transform="matrix(0.454533,0,0,0.454533,737.526,-351.353)">
                <circle cx="1411.68" cy="2417.13" r="55.619"/>
            </g>
            <g transform="matrix(0.311506,0,0,0.311506,837.546,-81.8044)">
                <circle cx="1411.68" cy="2417.13" r="55.619"/>
            </g>
            <g transform="matrix(0.432364,0,0,0.432364,640.657,-274.788)">
                <circle cx="1411.68" cy="2417.13" r="55.619"/>
            </g>
            <g transform="matrix(0.234108,0,0,0.234108,1077.02,73.2941)">
                <circle cx="1411.68" cy="2417.13" r="55.619"/>
            </g>
            <g transform="matrix(0.297932,0,0,0.297932,632.876,82.5728)">
                <circle cx="1411.68" cy="2417.13" r="55.619"/>
            </g>
            <g transform="matrix(0.346352,0,0,0.346352,747.76,24.2947)">
                <circle cx="1411.68" cy="2417.13" r="55.619"/>
            </g>
            <g transform="matrix(0.400047,0,0,0.400047,589.08,-196.754)">
                <circle cx="1411.68" cy="2417.13" r="55.619"/>
            </g>
            <g transform="matrix(0.592278,0,0,0.592278,402.368,-455.881)">
                <circle cx="1411.68" cy="2417.13" r="55.619"/>
            </g>
            <g transform="matrix(0.424856,0,0,0.424856,469.166,-64.1442)">
                <circle cx="1411.68" cy="2417.13" r="55.619"/>
            </g>
            <g transform="matrix(0.578059,0,0,0.578059,314.841,-528.769)">
                <circle cx="1411.68" cy="2417.13" r="55.619"/>
            </g>
            <g transform="matrix(1.11934,0,0,1.11934,-211.871,-1796.65)">
                <circle cx="1411.68" cy="2417.13" r="55.619"/>
            </g>
        </g>
        <g id="_-FBTC-" serif:id="(FBTC)" transform="matrix(1.65099,0,0,1.60698,-74.1464,-2967.86)">
            <text x="576.379px" y="2681.68px" style="font-family:'HelveticaNeue-Bold', 'Helvetica Neue';font-weight:700;font-size:140.714px;">FBTC</text>
        </g>
        <path d="M1406.56,559.548L1373.17,592.892L926.774,593.046C926.774,593.046 926.774,1117.02 926.774,1117.02C1046.93,1117.02 1450.75,1117.02 1450.75,1117.02L1450.99,669.604L1484.34,636.297L1484.07,1150.35L893.44,1150.35L893.44,559.724L1406.56,559.548Z"/>
    </g>
</svg>
