<svg id="Layer_1" data-name="Layer 1" xmlns="http://www.w3.org/2000/svg" viewBox="0 0 224.8 93.56"><title>Venor_logo_black</title><path d="M72.3,28.11,54.16,65.45H44.73L35.65,28.11h9.22a2.75,2.75,0,0,1,1.82.56,2.45,2.45,0,0,1,.85,1.39L50,46.8q.33,2.13.54,4.16T50.88,55Q51.53,53,52.29,51t1.66-4.18l6.55-16.74a3.56,3.56,0,0,1,1.19-1.39,3,3,0,0,1,1.76-.56Z"/><path d="M101.18,58.53a39.27,39.27,0,0,1-3.87,3.37,21.16,21.16,0,0,1-3.89,2.34,18.42,18.42,0,0,1-4.25,1.35,26.09,26.09,0,0,1-4.91.43,15.92,15.92,0,0,1-6.08-1.13,13.82,13.82,0,0,1-4.77-3.2,14.37,14.37,0,0,1-3.1-5,18.25,18.25,0,0,1-1.1-6.48,25.47,25.47,0,0,1,.67-5.83A24.61,24.61,0,0,1,71.79,39a22.35,22.35,0,0,1,3-4.61,19.91,19.91,0,0,1,4-3.62,19.1,19.1,0,0,1,4.93-2.36,18.88,18.88,0,0,1,5.71-.85,15.16,15.16,0,0,1,5.31.86,12.46,12.46,0,0,1,3.91,2.25,9.71,9.71,0,0,1,2.41,3.11,7.94,7.94,0,0,1,.83,3.46A10.66,10.66,0,0,1,101,42a9.59,9.59,0,0,1-3.51,3.76,23.47,23.47,0,0,1-6.73,2.81,67.06,67.06,0,0,1-10.64,1.8q.07,3.82,1.67,5.58a6.07,6.07,0,0,0,4.73,1.76A11.31,11.31,0,0,0,89,57.42a8.87,8.87,0,0,0,1.89-.65,12.53,12.53,0,0,0,1.46-.83l1.24-.83a6.55,6.55,0,0,1,1.24-.65,4.07,4.07,0,0,1,1.48-.25,2.19,2.19,0,0,1,1,.27,3.4,3.4,0,0,1,.9.7ZM88.87,35.14A6.48,6.48,0,0,0,84,37.35a13.74,13.74,0,0,0-3.1,6.07,49,49,0,0,0,5.62-1.15,14.6,14.6,0,0,0,3.35-1.31,4.05,4.05,0,0,0,1.6-1.49,3.67,3.67,0,0,0,.41-1.73A2.65,2.65,0,0,0,91.17,36,2.9,2.9,0,0,0,88.87,35.14Z"/><path d="M135.69,57a18.63,18.63,0,0,1-1.13-6.75,24.7,24.7,0,0,1,1.64-9.13,23.71,23.71,0,0,1,3.09-5.59,11.55,11.55,0,0,0-1.79-4.33,8.37,8.37,0,0,0-3.2-2.74,9.55,9.55,0,0,0-4.23-.94,13.9,13.9,0,0,0-6.62,1.71,18.25,18.25,0,0,0-5.9,5.31v-3a3.26,3.26,0,0,0-1-2.65,4.1,4.1,0,0,0-2.7-.81H108.1l-4.46,37.33H114.8l2.05-18.5a19.53,19.53,0,0,1,1.58-4.34,16.71,16.71,0,0,1,2.21-3.35,9.85,9.85,0,0,1,2.54-2.14,5.18,5.18,0,0,1,2.56-.76,3.2,3.2,0,0,1,1.37.27,2,2,0,0,1,.9.88,4,4,0,0,1,.38,1.66,15.52,15.52,0,0,1-.13,2.56l-2.81,23.72h11.16l.64-5.44A15.06,15.06,0,0,1,135.69,57Z"/><path d="M153.71,35.85A5.35,5.35,0,0,0,150.37,37a9.24,9.24,0,0,0-2.5,3.08,17.63,17.63,0,0,0-1.58,4.57,26.82,26.82,0,0,0-.56,5.58q0,4,1.1,5.78a3.88,3.88,0,0,0,3.58,1.78,5.35,5.35,0,0,0,3.35-1.13,9.18,9.18,0,0,0,2.5-3.1A17.92,17.92,0,0,0,157.83,49a26.56,26.56,0,0,0,.56-5.56q0-4.07-1.1-5.81A3.91,3.91,0,0,0,153.71,35.85Z"/><path d="M185.71,27.92A7.75,7.75,0,0,0,182.36,29a13.37,13.37,0,0,0-3.19,2.68,23.71,23.71,0,0,0-2.92,4.14V31.57a3.26,3.26,0,0,0-1-2.65,4.1,4.1,0,0,0-2.7-.81h-5.76l-.57,4.65a14.87,14.87,0,0,1,2.14,3.79,18.39,18.39,0,0,1,1.15,6.75,24.49,24.49,0,0,1-1.64,9.05,23.19,23.19,0,0,1-4.41,7.2c-.18.2-.38.38-.57.57l-.65,5.32h10.94l2-16.74a25.91,25.91,0,0,1,2.07-5.9,10.31,10.31,0,0,1,2.7-3.46,5.64,5.64,0,0,1,3.28-1.22,9,9,0,0,1,3.83.79l2-10.33A6.94,6.94,0,0,0,185.71,27.92Z"/></svg>